PathFileType	4	(X/Y/Z)	C:\Users\WrightLab\Desktop\Jo\P5V18.trc
DataRate	CameraRate	NumFrames	NumMarkers	Units	OrigDataRate	OrigDataStartFrame	OrigNumFrames
100.00	100.00	       96	19	mm	100.00	1	       892
Frame#	Time	Headset_Front			Headset_Back			Headset_Left			Headset_Right			Left_Shoulder			Right_Shoulder			Sternum			C7			Left Elbow			Right Elbow			Left Wrist			Right Wrist			Left ASIS			Right ASIS			S2			Left Knee			Right Knee			Left Ankle			Right Ankle			
		X1	Y1	Z1	X2	Y2	Z2	X3	Y3	Z3	X4	Y4	Z4	X5	Y5	Z5	X6	Y6	Z6	X7	Y7	Z7	X8	Y8	Z8	X9	Y9	Z9	X10	Y10	Z10	X11	Y11	Z11	X12	Y12	Z12	X13	Y13	Z13	X14	Y14	Z14	X15	Y15	Z15	X16	Y16	Z16	X17	Y17	Z17	X18	Y18	Z18	X19	Y19	Z19	

1	0.000																																																	-53.75713	548.47839	2025.44641				-34.71337	155.93176	2147.40015	
2	0.010																																																	-55.21281	548.89056	2024.94446				-34.79840	156.12410	2147.19971	
3	0.020																																																	-56.66226	548.93860	2024.45532				-34.71811	156.59000	2146.57593	
4	0.030																																																	-58.44023	549.36346	2022.31189				-34.68484	156.70015	2146.40601	
5	0.040																																																	-59.81910	549.38916	2022.22034				-36.86023	156.86296	2145.06616	
6	0.050																																																	-61.51938	550.06891	2021.32190				-36.84133	157.08058	2144.79541	
7	0.060																																																	-63.69877	549.95758	2019.34058				-37.54290	156.95514	2143.31299	
8	0.070																																																	-64.80388	550.44464	2019.55347				-37.51849	157.32491	2142.87598	
9	0.080																																																	-66.25919	550.54211	2019.23181				-37.45140	158.63597	2143.84497	
10	0.090																																																	-67.82225	551.12604	2020.13538				-37.40951	158.71613	2143.74292	
11	0.100																																																	-68.85619	551.74103	2020.75232				-37.18769	158.84331	2143.43628	
12	0.110																																																	-70.21294	552.06952	2020.04163				-37.42873	159.69145	2143.50391	
13	0.120																																																	-71.44685	552.06256	2019.85742				-37.24963	159.83763	2143.20288	
14	0.130																																																	-72.21667	552.40466	2020.56177				-37.06342	161.18718	2144.60791	
15	0.140																																																	-72.90618	552.73608	2020.70410				-36.86153	161.30496	2144.32739	
16	0.150																																																	-73.37357	552.74677	2021.31396				-36.87743	161.59480	2144.05933	
17	0.160																																																	-73.93517	552.59247	2022.20837				-36.84151	161.63638	2144.02393	
18	0.170																																																	-74.24524	552.62408	2022.76563				-36.80186	161.67822	2143.99268	
19	0.180																																																	-74.53098	552.65619	2023.22864				-36.76630	161.71567	2143.96484	
20	0.190																																																	-74.91302	553.08691	2023.40308				-36.73330	161.75392	2143.93213	
21	0.200																																																	-74.86614	553.44672	2023.22241				-36.70939	161.77271	2143.92578	
22	0.210																																																	-74.81812	554.04443	2023.82239				-36.69658	161.78822	2143.91187	
23	0.220																																																	-74.81461	554.25446	2023.72876				-36.50574	161.81326	2143.74658	
24	0.230																																																	-74.29910	554.40710	2025.04321				-36.68334	161.78616	2143.93213	
25	0.240																																																	-74.22736	554.48596	2025.04114				-36.69562	161.77081	2143.94629	
26	0.250																																																	-74.10167	554.61890	2025.03442				-36.72015	161.74579	2143.96411	
27	0.260																																																	-73.82977	554.74481	2024.88428				-36.72889	161.73566	2143.97266	
28	0.270																																																	-73.21958	555.23126	2026.61438				-36.74888	161.71809	2143.98169	
29	0.280																																																	-72.82192	555.26550	2026.36694				-36.84578	161.82172	2143.93896	
30	0.290																																																	-72.58553	554.88776	2025.74207				-37.39938	162.37187	2144.00952	
31	0.300																																																	-72.15943	555.27069	2024.98230				-37.39867	162.40282	2143.95117	
32	0.310																																																	-71.58880	555.47351	2025.68127				-37.36887	162.76840	2143.51514	
33	0.320																																																	-71.41090	555.09766	2025.23706				-37.25918	162.93698	2143.22363	
34	0.330																																																	-71.43545	555.72906	2023.91406				-37.22408	163.10803	2142.96631	
35	0.340																																																	-71.35747	555.82251	2023.68884				-37.20186	163.18758	2142.84131	
36	0.350																																																	-71.76162	555.78552	2022.06775				-37.32034	163.31628	2142.75342	
37	0.360																																																	-71.76666	556.16797	2021.29785				-37.48929	163.70110	2142.39111	
38	0.370																																																	-72.42898	556.56390	2018.71899				-37.76414	163.91043	2142.21997	
39	0.380																																																	-72.96162	556.67157	2018.39282				-37.81792	164.11514	2141.86206	
40	0.390																																																	-74.26221	556.69983	2014.66589				-39.09442	166.44049	2142.14722	
41	0.400																																																	-75.94267	556.69495	2013.46558				-40.69949	166.42975	2140.76953	
42	0.410																																																	-77.61429	556.13916	2011.02625				-41.45047	166.93544	2140.50977	
43	0.420																																																	-80.00774	556.29144	2007.71069				-43.13038	169.05499	2141.19385	
44	0.430																																																	-82.92742	556.93225	2006.32043				-44.25271	170.30783	2140.40161	
45	0.440																																																	-84.81654	557.75531	2001.66687				-47.38517	169.53949	2138.13574	
46	0.450																																																	-86.55356	558.73560	1996.12415				-49.69007	173.65414	2141.25317	
47	0.460																																																	-88.40762	559.86578	1991.93054				-53.04668	174.14679	2137.78638	
48	0.470																																																	-89.79002	560.30914	1985.95264				-55.31543	175.09406	2138.05542	
49	0.480																																																	-90.73243	560.43439	1981.33325				-58.50355	174.72505	2135.01709	
50	0.490																																																	-91.80153	560.68561	1977.62915				-60.40787	177.26466	2134.88159	
51	0.500																																																	-92.71780	561.05176	1973.61938				-63.46906	176.59064	2132.63257	
52	0.510																																																	-93.97352	562.01581	1969.94153				-67.28680	176.86485	2129.43994	
53	0.520																																																	-94.56187	562.85260	1967.48547				-70.43333	177.80072	2127.96313	
54	0.530																																																	-96.17412	563.23145	1964.19531				-72.60944	176.69011	2124.05176	
55	0.540																																																	-97.41795	564.54071	1960.88965				-76.60339	176.80640	2120.93579	
56	0.550																																																	-98.65701	564.54852	1958.64526				-80.09939	177.28410	2116.97241	
57	0.560																																																	-100.39210	565.74390	1955.94751				-82.94693	176.45438	2114.80396	
58	0.570																																																	-102.10535	565.67212	1954.27905				-86.64238	175.73735	2110.54688	
59	0.580																																																	-103.31209	566.78369	1952.44202				-90.53615	174.36298	2105.18311	
60	0.590																																																	-105.05967	567.00610	1950.80518				-93.25846	174.00349	2102.05713	
61	0.600																																																	-106.82490	566.77399	1949.34497				-97.23676	171.95316	2095.76123	
62	0.610																																																	-108.09301	567.24945	1948.73071				-99.53728	171.43896	2092.62451	
63	0.620																																																	-110.00080	567.44238	1946.80273				-103.21423	170.61876	2087.57202	
64	0.630																																																	-111.69547	567.99017	1945.97839				-105.74210	168.48404	2081.48364	
65	0.640																																																	-113.42117	568.27386	1945.73071				-109.35146	167.86887	2076.18262	
66	0.650																																																	-115.53748	568.25952	1943.27698				-112.30789	165.54665	2070.61670	
67	0.660																																																	-116.48189	568.08209	1943.57739				-115.88962	165.71104	2066.84619	
68	0.670																																																	-118.34048	568.33423	1943.56116				-118.77362	162.35474	2059.95630	
69	0.680																																																	-120.26321	567.97968	1942.35376				-122.55338	162.42017	2056.60107	
70	0.690																																																	-121.64743	568.05774	1941.60413				-124.39141	159.35883	2048.67847	
71	0.700																																																	-123.88711	567.95764	1942.23181				-127.33946	158.57063	2044.31836	
72	0.710																																																	-125.48917	567.74951	1940.48633				-129.25014	158.27101	2039.33020	
73	0.720																																																	-127.37257	567.45117	1940.60168				-130.81999	155.30264	2033.90613	
74	0.730																																																	-129.14995	567.34637	1940.42627				-132.13942	154.73961	2029.28577	
75	0.740																																																	-130.49330	566.57599	1938.94434				-135.09552	154.53093	2024.90991	
76	0.750																																																	-132.24248	565.74652	1939.32092				-136.29861	151.78201	2020.12366	
77	0.760																																																	-133.88803	565.75092	1937.80200				-137.61548	151.36203	2016.92224	
78	0.770																																																	-135.10068	564.26599	1937.70764				-137.91386	149.93663	2011.96106	
79	0.780																																																	-135.82822	563.48877	1938.52173				-138.68352	148.77667	2008.99658	
80	0.790																																																	-137.02580	561.60657	1938.59229				-139.82492	148.11917	2005.17383	
81	0.800																																																	-137.78130	560.31042	1938.06470				-141.24791	147.27165	2003.46130	
82	0.810																																																	-138.45413	558.68225	1938.47534				-142.52612	146.67659	2004.33179	
83	0.820																																																	-138.81677	556.83868	1936.91187				-143.37527	145.96616	2006.44336	
84	0.830																																																	-138.63240	555.00098	1938.85449				-143.39250	145.48817	2006.46753	
85	0.840																																																	-138.54041	554.21265	1938.95056				-143.70984	145.12831	2006.44836	
86	0.850																																																	-137.42441	552.65936	1939.75513				-143.65247	144.87305	2006.26489	
87	0.860																																																	-136.70441	552.65027	1938.98669				-143.49828	144.53191	2006.26563	
88	0.870																																																	-135.81360	551.99426	1938.65613				-143.42307	144.52345	2006.21545	
89	0.880																																																	-133.87482	551.81506	1939.76355				-143.28366	143.93678	2005.40002	
90	0.890																																																	-131.59912	551.72729	1940.61255				-142.77249	143.82852	2005.17493	
91	0.900																																																	-129.77820	552.03180	1938.45483				-142.44701	143.77325	2004.94666	
92	0.910																																																	-127.30023	551.94305	1938.48486				-141.34660	143.61540	2005.38818	
93	0.920																																																	-127.13143	551.53033	1940.86243				-140.74475	143.44089	2005.36389	
94	0.930																																																	-122.80846	552.69073	1937.71655				-139.99818	143.09798	2004.82898	
95	0.940																																																	-120.52827	552.24860	1936.58508				-139.93187	142.94827	2004.76025	
96	0.950																																																	-118.32786	552.24231	1935.89624				-139.82361	142.78848	2004.79712	
